<svg width="20" height="21" viewBox="0 0 20 21" fill="none" xmlns="http://www.w3.org/2000/svg">
<rect x="4" y="5" width="12" height="11" fill="white"/>
<path fill-rule="evenodd" clip-rule="evenodd" d="M7 -1.52588e-05C5.34315 -1.52588e-05 4 1.34313 4 2.99998V5H3C1.34315 5 0 6.34315 0 8V18C0 19.6569 1.34315 21 3 21H13C14.6569 21 16 19.6569 16 18V16H17C18.6569 16 20 14.6568 20 13V2.99998C20 1.34313 18.6569 -1.52588e-05 17 -1.52588e-05H7ZM16 16V8C16 6.34315 14.6569 5 13 5H4V13C4 14.6568 5.34315 16 7 16H16Z" fill="#0BA5EC"/>
<path d="M9.99823 13.658C7.99304 13.658 6.55902 12.2969 6.55902 10.4375C6.55902 8.56601 8.00519 7.21706 10.0104 7.21706C12.2343 7.21706 13.7291 8.86983 13.4253 10.9965H8.30901C8.46699 11.7743 9.11109 12.2847 9.99823 12.2847C10.6423 12.2847 11.1892 12.0174 11.5052 11.5556H13.2916C12.8055 12.8438 11.5538 13.658 9.99823 13.658ZM8.29686 9.89065H11.7361C11.5659 9.08858 10.9097 8.57816 10.0104 8.57816C9.11109 8.57816 8.46699 9.10073 8.29686 9.89065Z" fill="#0BA5EC"/>
</svg>
