<svg width="114" height="24" viewBox="0 0 114 24" fill="none" xmlns="http://www.w3.org/2000/svg">
<mask id="path-1-outside-1_10_33" maskUnits="userSpaceOnUse" x="34" y="2" width="78" height="19" fill="black">
<rect fill="white" x="34" y="2" width="78" height="19"/>
<path d="M41.896 20.312C37.936 20.312 35.104 17.624 35.104 13.952C35.104 10.256 37.96 7.592 41.92 7.592C46.312 7.592 49.264 10.856 48.664 15.056H38.56C38.872 16.592 40.144 17.6 41.896 17.6C43.168 17.6 44.248 17.072 44.872 16.16H48.4C47.44 18.704 44.968 20.312 41.896 20.312ZM38.536 12.872H45.328C44.992 11.288 43.696 10.28 41.92 10.28C40.144 10.28 38.872 11.312 38.536 12.872ZM54.1019 20H50.0939L56.8619 3.2H61.0139L67.7819 20H63.7979L62.6459 17.072H55.2299L54.1019 20ZM56.2859 14.144H61.6139C59.9819 9.992 59.6219 8.744 59.5019 6.416H58.3979C58.2779 8.744 57.9179 9.992 56.2859 14.144ZM76.7176 20.288C72.2056 20.288 69.3736 18.2 69.3496 14.672H73.0696C73.1416 16.256 74.3896 17.24 76.7176 17.24C78.5896 17.24 79.8856 16.616 79.8856 15.296C79.8856 11.672 69.6376 14.552 69.6376 8.024C69.6376 4.688 72.3016 2.912 76.1896 2.912C80.2936 2.912 82.9816 4.928 83.1256 8.288H79.4776C79.4056 6.872 78.2056 5.96 76.2136 5.96C74.5336 5.96 73.2616 6.584 73.2616 7.856C73.2616 11.456 83.6296 8.696 83.6296 15.152C83.6296 18.344 81.0376 20.288 76.7176 20.288ZM86.8503 20V3.2H90.5943V20H86.8503ZM108.626 20C108.818 18.488 109.274 17.36 110.402 15.584L109.346 15.056C107.618 18.56 105.194 20.264 101.954 20.264C97.2743 20.264 93.8423 16.64 93.8423 11.624C93.8423 6.488 97.5383 2.888 102.842 2.888C106.946 2.888 110.138 5.096 111.338 8.696H107.498C106.562 7.16 104.858 6.224 102.89 6.224C99.7943 6.224 97.6343 8.432 97.6343 11.6C97.6343 14.72 99.7943 16.976 102.794 16.976C105.002 16.976 106.73 15.752 107.45 13.712H103.538V11.072H111.626V20H108.626Z"/>
</mask>
<path d="M41.896 20.312C37.936 20.312 35.104 17.624 35.104 13.952C35.104 10.256 37.96 7.592 41.92 7.592C46.312 7.592 49.264 10.856 48.664 15.056H38.56C38.872 16.592 40.144 17.6 41.896 17.6C43.168 17.6 44.248 17.072 44.872 16.16H48.4C47.44 18.704 44.968 20.312 41.896 20.312ZM38.536 12.872H45.328C44.992 11.288 43.696 10.28 41.92 10.28C40.144 10.28 38.872 11.312 38.536 12.872ZM54.1019 20H50.0939L56.8619 3.2H61.0139L67.7819 20H63.7979L62.6459 17.072H55.2299L54.1019 20ZM56.2859 14.144H61.6139C59.9819 9.992 59.6219 8.744 59.5019 6.416H58.3979C58.2779 8.744 57.9179 9.992 56.2859 14.144ZM76.7176 20.288C72.2056 20.288 69.3736 18.2 69.3496 14.672H73.0696C73.1416 16.256 74.3896 17.24 76.7176 17.24C78.5896 17.24 79.8856 16.616 79.8856 15.296C79.8856 11.672 69.6376 14.552 69.6376 8.024C69.6376 4.688 72.3016 2.912 76.1896 2.912C80.2936 2.912 82.9816 4.928 83.1256 8.288H79.4776C79.4056 6.872 78.2056 5.96 76.2136 5.96C74.5336 5.96 73.2616 6.584 73.2616 7.856C73.2616 11.456 83.6296 8.696 83.6296 15.152C83.6296 18.344 81.0376 20.288 76.7176 20.288ZM86.8503 20V3.2H90.5943V20H86.8503ZM108.626 20C108.818 18.488 109.274 17.36 110.402 15.584L109.346 15.056C107.618 18.56 105.194 20.264 101.954 20.264C97.2743 20.264 93.8423 16.64 93.8423 11.624C93.8423 6.488 97.5383 2.888 102.842 2.888C106.946 2.888 110.138 5.096 111.338 8.696H107.498C106.562 7.16 104.858 6.224 102.89 6.224C99.7943 6.224 97.6343 8.432 97.6343 11.6C97.6343 14.72 99.7943 16.976 102.794 16.976C105.002 16.976 106.73 15.752 107.45 13.712H103.538V11.072H111.626V20H108.626Z" fill="#101323"/>
<path d="M48.664 15.056V15.256H48.8375L48.862 15.0843L48.664 15.056ZM38.56 15.056V14.856H38.3153L38.364 15.0958L38.56 15.056ZM44.872 16.16V15.96H44.7665L44.7069 16.0471L44.872 16.16ZM48.4 16.16L48.5871 16.2306L48.6892 15.96H48.4V16.16ZM38.536 12.872L38.3405 12.8299L38.2883 13.072H38.536V12.872ZM45.328 12.872V13.072H45.5749L45.5236 12.8305L45.328 12.872ZM41.896 20.112C38.0346 20.112 35.304 17.5021 35.304 13.952H34.904C34.904 17.7459 37.8374 20.512 41.896 20.512V20.112ZM35.304 13.952C35.304 10.3793 38.0572 7.792 41.92 7.792V7.392C37.8628 7.392 34.904 10.1327 34.904 13.952H35.304ZM41.92 7.792C44.0655 7.792 45.8454 8.58837 47.0156 9.8831C48.1852 11.1772 48.7582 12.9826 48.466 15.0277L48.862 15.0843C49.1698 12.9294 48.5668 11.0028 47.3124 9.61489C46.0586 8.22763 44.1665 7.392 41.92 7.392V7.792ZM48.664 14.856H38.56V15.256H48.664V14.856ZM38.364 15.0958C38.6969 16.7345 40.0589 17.8 41.896 17.8V17.4C40.2291 17.4 39.0471 16.4495 38.756 15.0162L38.364 15.0958ZM41.896 17.8C43.2236 17.8 44.3702 17.2475 45.0371 16.2729L44.7069 16.0471C44.1258 16.8965 43.1124 17.4 41.896 17.4V17.8ZM44.872 16.36H48.4V15.96H44.872V16.36ZM48.2129 16.0894C47.2861 18.5453 44.8962 20.112 41.896 20.112V20.512C45.0398 20.512 47.5939 18.8627 48.5871 16.2306L48.2129 16.0894ZM38.536 13.072H45.328V12.672H38.536V13.072ZM45.5236 12.8305C45.1661 11.145 43.7808 10.08 41.92 10.08V10.48C43.6112 10.48 44.8179 11.431 45.1324 12.9135L45.5236 12.8305ZM41.92 10.08C40.056 10.08 38.6976 11.1718 38.3405 12.8299L38.7315 12.9141C39.0464 11.4522 40.232 10.48 41.92 10.48V10.08ZM54.1019 20V20.2H54.2392L54.2885 20.0719L54.1019 20ZM50.0939 20L49.9084 19.9253L49.7977 20.2H50.0939V20ZM56.8619 3.2V3H56.7268L56.6764 3.12526L56.8619 3.2ZM61.0139 3.2L61.1994 3.12526L61.1489 3H61.0139V3.2ZM67.7819 20V20.2H68.0781L67.9674 19.9253L67.7819 20ZM63.7979 20L63.6118 20.0732L63.6616 20.2H63.7979V20ZM62.6459 17.072L62.832 16.9988L62.7821 16.872H62.6459V17.072ZM55.2299 17.072V16.872H55.0926L55.0432 17.0001L55.2299 17.072ZM56.2859 14.144L56.0997 14.0708L55.9924 14.344H56.2859V14.144ZM61.6139 14.144V14.344H61.9074L61.8 14.0708L61.6139 14.144ZM59.5019 6.416L59.7016 6.4057L59.6918 6.216H59.5019V6.416ZM58.3979 6.416V6.216H58.2079L58.1981 6.4057L58.3979 6.416ZM54.1019 19.8H50.0939V20.2H54.1019V19.8ZM50.2794 20.0747L57.0474 3.27473L56.6764 3.12526L49.9084 19.9253L50.2794 20.0747ZM56.8619 3.4H61.0139V3H56.8619V3.4ZM60.8284 3.27473L67.5964 20.0747L67.9674 19.9253L61.1994 3.12526L60.8284 3.27473ZM67.7819 19.8H63.7979V20.2H67.7819V19.8ZM63.984 19.9268L62.832 16.9988L62.4598 17.1452L63.6118 20.0732L63.984 19.9268ZM62.6459 16.872H55.2299V17.272H62.6459V16.872ZM55.0432 17.0001L53.9152 19.9281L54.2885 20.0719L55.4165 17.1439L55.0432 17.0001ZM56.2859 14.344H61.6139V13.944H56.2859V14.344ZM61.8 14.0708C60.1695 9.92252 59.8199 8.69969 59.7016 6.4057L59.3021 6.42629C59.4239 8.78831 59.7943 10.0615 61.4277 14.2172L61.8 14.0708ZM59.5019 6.216H58.3979V6.616H59.5019V6.216ZM58.1981 6.4057C58.0799 8.69969 57.7303 9.92252 56.0997 14.0708L56.472 14.2172C58.1055 10.0615 58.4759 8.78831 58.5976 6.42629L58.1981 6.4057ZM69.3496 14.672V14.472H69.1482L69.1496 14.6734L69.3496 14.672ZM73.0696 14.672L73.2694 14.6629L73.2607 14.472H73.0696V14.672ZM83.1256 8.288V8.488H83.3343L83.3254 8.27944L83.1256 8.288ZM79.4776 8.288L79.2778 8.29816L79.2875 8.488H79.4776V8.288ZM76.7176 20.088C74.4894 20.088 72.7007 19.5721 71.4711 18.6434C70.248 17.7196 69.5612 16.3752 69.5496 14.6706L69.1496 14.6734C69.162 16.4968 69.9032 17.9604 71.23 18.9626C72.5504 19.9599 74.4337 20.488 76.7176 20.488V20.088ZM69.3496 14.872H73.0696V14.472H69.3496V14.872ZM72.8698 14.6811C72.9083 15.5292 73.2652 16.2295 73.9301 16.7119C74.5881 17.1892 75.5287 17.44 76.7176 17.44V17.04C75.5784 17.04 74.7311 16.7988 74.165 16.3881C73.6059 15.9825 73.3028 15.3988 73.2694 14.6629L72.8698 14.6811ZM76.7176 17.44C77.6708 17.44 78.5026 17.2819 79.1033 16.9364C79.7154 16.5842 80.0856 16.0362 80.0856 15.296H79.6856C79.6856 15.8758 79.4077 16.2998 78.9038 16.5896C78.3886 16.8861 77.6364 17.04 76.7176 17.04V17.44ZM80.0856 15.296C80.0856 14.789 79.9037 14.3871 79.5868 14.0695C79.2763 13.7583 78.844 13.5356 78.3513 13.3604C77.3743 13.013 76.0625 12.8232 74.8035 12.5534C73.5248 12.2794 72.2808 11.9208 71.3571 11.2434C70.4477 10.5764 69.8376 9.59231 69.8376 8.024H69.4376C69.4376 9.71969 70.1084 10.8236 71.1205 11.5659C72.1183 12.2977 73.4364 12.6696 74.7197 12.9446C76.0226 13.2238 77.2728 13.4015 78.2173 13.7373C78.6854 13.9038 79.0537 14.1016 79.3036 14.3521C79.5472 14.5962 79.6856 14.897 79.6856 15.296H80.0856ZM69.8376 8.024C69.8376 6.41603 70.4762 5.19866 71.5753 4.3772C72.6817 3.55024 74.2726 3.112 76.1896 3.112V2.712C74.2185 2.712 72.5334 3.16176 71.3358 4.0568C70.1309 4.95734 69.4376 6.29597 69.4376 8.024H69.8376ZM76.1896 3.112C78.2109 3.112 79.862 3.60862 81.0207 4.49861C82.1748 5.38501 82.8562 6.67301 82.9257 8.29656L83.3254 8.27944C83.251 6.54299 82.5163 5.14299 81.2644 4.18139C80.0171 3.22337 78.2722 2.712 76.1896 2.712V3.112ZM83.1256 8.088H79.4776V8.488H83.1256V8.088ZM79.6773 8.27784C79.6383 7.50991 79.2904 6.87194 78.683 6.43114C78.081 5.99416 77.2376 5.76 76.2136 5.76V6.16C77.1815 6.16 77.9341 6.38184 78.4481 6.75486C78.9568 7.12405 79.2449 7.65009 79.2778 8.29816L79.6773 8.27784ZM76.2136 5.76C75.3532 5.76 74.5753 5.91909 74.0051 6.25924C73.4257 6.60492 73.0616 7.13962 73.0616 7.856H73.4616C73.4616 7.30038 73.7335 6.88708 74.21 6.60276C74.6959 6.31291 75.3939 6.16 76.2136 6.16V5.76ZM73.0616 7.856C73.0616 8.36118 73.2462 8.76233 73.5661 9.08017C73.8796 9.39167 74.3161 9.61667 74.8141 9.79515C75.8021 10.1493 77.1281 10.3495 78.4028 10.6284C79.6968 10.9114 80.9565 11.2775 81.8921 11.9565C82.8134 12.6251 83.4296 13.6035 83.4296 15.152H83.8296C83.8296 13.4725 83.1497 12.3749 82.127 11.6328C81.1186 10.901 79.7864 10.5216 78.4883 10.2376C77.171 9.94946 75.905 9.76122 74.949 9.4186C74.475 9.2487 74.1015 9.04826 73.848 8.79642C73.6009 8.55092 73.4616 8.25082 73.4616 7.856H73.0616ZM83.4296 15.152C83.4296 16.6872 82.8095 17.9108 81.6741 18.7566C80.5317 19.6076 78.8508 20.088 76.7176 20.088V20.488C78.9043 20.488 80.6794 19.9964 81.913 19.0774C83.1536 18.1532 83.8296 16.8088 83.8296 15.152H83.4296ZM86.8503 20H86.6502V20.2H86.8503V20ZM86.8503 3.2V3H86.6502V3.2H86.8503ZM90.5942 3.2H90.7943V3H90.5942V3.2ZM90.5942 20V20.2H90.7943V20H90.5942ZM87.0503 20V3.2H86.6502V20H87.0503ZM86.8503 3.4H90.5942V3H86.8503V3.4ZM90.3942 3.2V20H90.7943V3.2H90.3942ZM90.5942 19.8H86.8503V20.2H90.5942V19.8ZM108.626 20L108.428 19.9748L108.399 20.2H108.626V20ZM110.402 15.584L110.571 15.6912L110.69 15.5042L110.492 15.4051L110.402 15.584ZM109.346 15.056L109.436 14.8771L109.256 14.7872L109.167 14.9675L109.346 15.056ZM111.338 8.696V8.896H111.616L111.528 8.63275L111.338 8.696ZM107.498 8.696L107.328 8.80007L107.386 8.896H107.498V8.696ZM107.45 13.712L107.639 13.7786L107.733 13.512H107.45V13.712ZM103.538 13.712H103.338V13.912H103.538V13.712ZM103.538 11.072V10.872H103.338V11.072H103.538ZM111.626 11.072H111.826V10.872H111.626V11.072ZM111.626 20V20.2H111.826V20H111.626ZM108.825 20.0252C109.012 18.5515 109.453 17.4515 110.571 15.6912L110.233 15.4768C109.096 17.2685 108.625 18.4245 108.428 19.9748L108.825 20.0252ZM110.492 15.4051L109.436 14.8771L109.257 15.2349L110.313 15.7629L110.492 15.4051ZM109.167 14.9675C108.313 16.6985 107.295 17.9708 106.102 18.8105C104.912 19.6486 103.537 20.064 101.954 20.064V20.464C103.612 20.464 105.069 20.0274 106.332 19.1375C107.594 18.2492 108.651 16.9175 109.526 15.1445L109.167 14.9675ZM101.954 20.064C97.396 20.064 94.0423 16.5411 94.0423 11.624H93.6423C93.6423 16.7389 97.1526 20.464 101.954 20.464V20.064ZM94.0423 11.624C94.0423 9.10564 94.9475 6.97482 96.4927 5.47344C98.0383 3.97167 100.236 3.088 102.842 3.088V2.688C100.144 2.688 97.8423 3.60433 96.2139 5.18656C94.5851 6.76918 93.6423 9.00636 93.6423 11.624H94.0423ZM102.842 3.088C106.868 3.088 109.978 5.24808 111.149 8.75924L111.528 8.63275C110.298 4.94392 107.025 2.688 102.842 2.688V3.088ZM111.338 8.496H107.498V8.896H111.338V8.496ZM107.669 8.59193C106.694 6.99206 104.923 6.024 102.89 6.024V6.424C104.794 6.424 106.43 7.32794 107.328 8.80007L107.669 8.59193ZM102.89 6.024C101.293 6.024 99.9261 6.59445 98.9583 7.58417C97.9908 8.57357 97.4343 9.96964 97.4343 11.6H97.8343C97.8343 10.0624 98.3578 8.77043 99.2443 7.86383C100.131 6.95755 101.391 6.424 102.89 6.424V6.024ZM97.4343 11.6C97.4343 14.8225 99.6761 17.176 102.794 17.176V16.776C99.9126 16.776 97.8343 14.6175 97.8343 11.6H97.4343ZM102.794 17.176C105.086 17.176 106.89 15.8995 107.639 13.7786L107.262 13.6454C106.57 15.6045 104.919 16.776 102.794 16.776V17.176ZM107.45 13.512H103.538V13.912H107.45V13.512ZM103.738 13.712V11.072H103.338V13.712H103.738ZM103.538 11.272H111.626V10.872H103.538V11.272ZM111.426 11.072V20H111.826V11.072H111.426ZM111.626 19.8H108.626V20.2H111.626V19.8Z" fill="#101323" mask="url(#path-1-outside-1_10_33)"/>
<path fill-rule="evenodd" clip-rule="evenodd" d="M7 0.999985C5.34315 0.999985 4 2.34313 4 3.99998V6H3C1.34315 6 0 7.34315 0 9V19C0 20.6569 1.34315 22 3 22H13C14.6569 22 16 20.6569 16 19V17H17C18.6569 17 20 15.6568 20 14V3.99998C20 2.34313 18.6569 0.999985 17 0.999985H7ZM16 17V9C16 7.34315 14.6569 6 13 6H4V14C4 15.6568 5.34315 17 7 17H16Z" fill="#0BA5EC"/>
<path d="M9.99823 14.658C7.99304 14.658 6.55902 13.2969 6.55902 11.4375C6.55902 9.56601 8.00519 8.21706 10.0104 8.21706C12.2343 8.21706 13.7291 9.86983 13.4253 11.9965H8.30901C8.46699 12.7743 9.11109 13.2847 9.99823 13.2847C10.6423 13.2847 11.1892 13.0174 11.5052 12.5556H13.2916C12.8055 13.8438 11.5538 14.658 9.99823 14.658ZM8.29686 10.8907H11.7361C11.5659 10.0886 10.9097 9.57816 10.0104 9.57816C9.11109 9.57816 8.46699 10.1007 8.29686 10.8907Z" fill="#0BA5EC"/>
</svg>
